<mxfile host="65bd71144e">
    <diagram id="wdZhL47jgApj5B_m4iuR" name="Page-1">
        <mxGraphModel dx="1625" dy="451" grid="1" gridSize="10" guides="1" tooltips="1" connect="1" arrows="1" fold="1" page="1" pageScale="1" pageWidth="827" pageHeight="1169" math="0" shadow="0">
            <root>
                <mxCell id="0"/>
                <mxCell id="1" parent="0"/>
                <mxCell id="2" value="" style="whiteSpace=wrap;html=1;" vertex="1" parent="1">
                    <mxGeometry x="280" y="120" width="150" height="290" as="geometry"/>
                </mxCell>
                <mxCell id="3" value="ECStack&lt;br&gt;" style="text;html=1;align=center;verticalAlign=middle;resizable=0;points=[];autosize=1;strokeColor=none;" vertex="1" parent="1">
                    <mxGeometry x="280" y="100" width="60" height="20" as="geometry"/>
                </mxCell>
                <mxCell id="4" value="" style="whiteSpace=wrap;html=1;" vertex="1" parent="1">
                    <mxGeometry x="460" y="120" width="330" height="290" as="geometry"/>
                </mxCell>
                <mxCell id="5" value="堆内存" style="text;html=1;align=center;verticalAlign=middle;resizable=0;points=[];autosize=1;strokeColor=none;" vertex="1" parent="1">
                    <mxGeometry x="460" y="100" width="50" height="20" as="geometry"/>
                </mxCell>
                <mxCell id="6" value="String&lt;br&gt;setTimeout&lt;br&gt;window&lt;br&gt;foo：0xa00&lt;br&gt;fn:0xb00" style="whiteSpace=wrap;html=1;" vertex="1" parent="1">
                    <mxGeometry x="500" y="160" width="120" height="70" as="geometry"/>
                </mxCell>
                <mxCell id="7" value="GO对象" style="text;html=1;align=center;verticalAlign=middle;resizable=0;points=[];autosize=1;strokeColor=none;" vertex="1" parent="1">
                    <mxGeometry x="500" y="140" width="60" height="20" as="geometry"/>
                </mxCell>
                <mxCell id="8" value="" style="whiteSpace=wrap;html=1;" vertex="1" parent="1">
                    <mxGeometry x="294" y="340" width="120" height="60" as="geometry"/>
                </mxCell>
                <mxCell id="9" value="GEC（全局执行上下文）" style="text;html=1;align=center;verticalAlign=middle;resizable=0;points=[];autosize=1;strokeColor=none;" vertex="1" parent="1">
                    <mxGeometry x="280" y="320" width="150" height="20" as="geometry"/>
                </mxCell>
                <mxCell id="10" value="" style="whiteSpace=wrap;html=1;" vertex="1" parent="1">
                    <mxGeometry x="500" y="260" width="120" height="60" as="geometry"/>
                </mxCell>
                <mxCell id="11" value="foo函数对象 0xa00&lt;br&gt;" style="text;html=1;align=center;verticalAlign=middle;resizable=0;points=[];autosize=1;strokeColor=none;" vertex="1" parent="1">
                    <mxGeometry x="490" y="240" width="120" height="20" as="geometry"/>
                </mxCell>
                <mxCell id="12" value="VO:GO" style="whiteSpace=wrap;html=1;" vertex="1" parent="1">
                    <mxGeometry x="309" y="350" width="90" height="20" as="geometry"/>
                </mxCell>
                <mxCell id="13" value="执行代码" style="whiteSpace=wrap;html=1;" vertex="1" parent="1">
                    <mxGeometry x="309" y="370" width="91" height="20" as="geometry"/>
                </mxCell>
                <mxCell id="14" value="" style="whiteSpace=wrap;html=1;" vertex="1" parent="1">
                    <mxGeometry x="295" y="260" width="120" height="60" as="geometry"/>
                </mxCell>
                <mxCell id="15" value="FEC（函数执行上下文）" style="text;html=1;align=center;verticalAlign=middle;resizable=0;points=[];autosize=1;strokeColor=none;" vertex="1" parent="1">
                    <mxGeometry x="280" y="240" width="150" height="20" as="geometry"/>
                </mxCell>
                <mxCell id="16" value="bar：0xb00" style="whiteSpace=wrap;html=1;" vertex="1" parent="1">
                    <mxGeometry x="650" y="160" width="120" height="60" as="geometry"/>
                </mxCell>
                <mxCell id="17" value="foo AO对象" style="text;html=1;align=center;verticalAlign=middle;resizable=0;points=[];autosize=1;strokeColor=none;" vertex="1" parent="1">
                    <mxGeometry x="650" y="140" width="80" height="20" as="geometry"/>
                </mxCell>
                <mxCell id="18" value="" style="whiteSpace=wrap;html=1;" vertex="1" parent="1">
                    <mxGeometry x="650" y="260" width="120" height="60" as="geometry"/>
                </mxCell>
                <mxCell id="19" value="bar函数对象 0xb00" style="text;html=1;align=center;verticalAlign=middle;resizable=0;points=[];autosize=1;strokeColor=none;" vertex="1" parent="1">
                    <mxGeometry x="650" y="240" width="120" height="20" as="geometry"/>
                </mxCell>
                <mxCell id="20" value="VO:AO" style="whiteSpace=wrap;html=1;" vertex="1" parent="1">
                    <mxGeometry x="309" y="270" width="80" height="20" as="geometry"/>
                </mxCell>
                <mxCell id="21" value="" style="shape=image;verticalLabelPosition=bottom;labelBackgroundColor=#ffffff;verticalAlign=top;aspect=fixed;imageAspect=0;image=data:image/png,iVBORw0KGgoAAAANSUhEUgAAAU8AAAD1CAYAAADQ63dVAAAgAElEQVR4Ae2dz2sdybXH87/cxX0PLEHkAT1NFpI2loUtnBtBjBcikXCwQZPAgAcUO4phiBeBsRbC4CELbWRj4lkYT4Y3C8s4vAGtjXez8Epk7T/hPE71re6q6qruunW761b3/S5E6/atrh+nvvXpc6r6dv1iMFwk/MEG0AA0AA1MpoFfwGCTGQz2gr2gAWiANQB4wvNG5AENQAMBGgA8A4wGzwOeBzQADQCegCe8DmgAGgjQAOAZYDR4HfA6oAFoAPAEPOF1QAPQQIAGAM8Ao3XG61h/Q+cHb+iwz21E2wC+GWkgLjyXRrQ5ukWXLyXu8gvofKTzA/n3gZ5+lnidbQLqADyXjz/R7ivl7/QtLdja0ta5uyf03fNv6IqR/+0n7+jx3cn6nK/57vvX9OD6ZNd15mZs2Gje6x0FnsOVW7Q52qPNqxt0eS1xeH72ks6S9daO6MX+S9rpiYgXDi9o9/jZDD2nbXrw3AHJ69/QiQWqTmBMmr4nfei0xxy0Lwo8VQMvdAGeO0czHNBVXkv/4Ll1p6q9LX/n8DqlXifyPhmeT+4lqpuW7TgHoJSaUI+Ap+x44XHKMF0/nt34QgyKnRsfslBegWt+7kAJ7WXYL7zEI3qRh/8f6cW6XciHO2aZR/R0X85XfkFP9/Xvq6YUijrxNTIPe7l62o8k25qJRNY9a5tWR8UGqqB8/hcepxqq5/9f0Po1o5533uthvdNTfUZbeT48DfCelmXfOo4Mx5OH227g1cBVayvg6bajw/6a/TqYBvA0O40hWgUGx/eHOwo8RZ7sJX6gMxWqjikBhpIOrUXKQGWCb1LPk+Fn5lHASZRhtNV+7gOd7at1zGDuuhH4DgqGaJXnKSBrzIHazg2uvaWbrwzw2s5pfX2PHtfNTzIQ69LIPAFPwNNX+KHpOh+2TwJPFZzjQcaengad9TclcLpt2yA8He3gss0bgQ3ug4rr3fUvwM1pquH5jLYMcMp8zeuWjw1wSqAxQF2eqgDjCd2Waa1HBqxjTtRMz14qwva5Aig8T3MQ1EHB8b0JnMHQDjoTnuZnCQj70Z6nPS2Dyu15VpZrAL3ctkVqHZ533tPNw0f2wahB0Q3ZwfARrZ86wvcG4ZmtsteBWL9xuPsM6bpiG8AT8CwDCvAc28QjtJf6gedZ1pG0TU+PgKfZsQ7PMr8bWr/nOUDbnGf5saKSx8eLS8a8Y16WWTeHN1uZ3jXnaW1H5vWYnqb5WZRXcb27PrpXZYbf+nVuj9K8LihsH3qA0cs7HbcJc56Apy5gXexNfNf5OU8RCqug1FekCxvZQ+wSPIfZ4ou5YCTC4gNzdb4Mac7PvaLuDtu5njyXqc2/MqwtMJ8NPLM50VLoziG7ORdqOydCdsdc6PimhNX25sd3of/+5x3F88wfkucH5bW/hB6Yl48XKY8VyceBrIDJ0+mP8Yi0Wl4StBkkZZ4mLMUqd55nxSNG7PGp6cyH5s3v1bSlBSy9TqJuWn7yxpA9JiXrnAF7/OiUlt5vwJR+VZQ/YlSenyynLacRA9Z8pOnVp8qVfHFNzaNIeM7Trz/nCZhqW6PAUy0Q/0OQ6WgAvzBKpy+6Ny4Az9K8Yvc6EQNgij5zeJ8TeZ3KNAB+2z5FX3RsLAKeHeswgHJ+Bif6Ou2+BjwBz7lbJQWU0oZSV/oH8AQ8AU9oABoI0ADgGWC0rtwZUU94WNBAexoAPAFPeB3QADQQoAHAM8BouJu3dzeHbWHbrmgA8Bwu0q/WrtJ/XbqMuy9uJNAANOCtAcAT8PQWS1c8AtQT3msMDQCegCfgCW8LGgjQAOAJeGLgBAycGJ4NykjbgwY8AU9/eIoXnri39cBgT3uwo3+a7Z948BR7thdvVVpZarYh0wij9QUjy5uOSm9q6oL3kyA85VuXSq+um5U9He8AvfLwdfVmc5b6Zm+oxz7w04ztNq+NA08BzhEt5AJZpZXRHqUC0Hbhya91k6+lS+eGIUVlfVdn3k/p1VfWWztWbdkRuS3ud4Tyy5cn2KqDITzJvvGR26nZf07LjgJP6wuQL23Q+tUNGiZg+NbhGfDOy1jiBDwbvEE4vE7ZlxN5n3gzvf900owYEgWeUjzasffw1F8kLF+CLI5y2w350mQVrvKc+hZ5eU6k0/N1hv/yGvky5P2XdKjs3Km90FimGR/lS49lf+lpa+Y8zXJlW4XAi5cvc721fFUbTDoYpOfJb5TPX6xseRmy8f3uq0/2TeaUFyuLrZGV66qmBxiOlTto1sBV2lscAU/AUxOEMigW1uYobK8Eg+92HZzObx94sZWGWeYYaiZsJ/M8GdxueAoYGuW6zp3tf9D2brJub6zoxaUjcZ7hefyebr5S3zLPO2daAGrkKeZMHdsT83dbx+9pV8nXuV/SsOLFynmZE2xlDHgCnjbR87Yc6yvLyRhntmH7BPC0zJ0ynHQg2vOz9QOfaw6e7nLNOgqgah4ph87u6111z88LT1EFpwzFn9GWAr48fQ4zTufeaE6A1dwvSbtWlsNHjw3lxoA9ebhdr33sxllvI2dfqP3S3v/Rw3axn9HaalKG6Qw8Da+OYWCCadL91BuDp7FdsQYqY6fNUp3FIJgOnq5wWvcUM2+Uw3XtzwFI4Xne8R18zcEzW2WfYHFpxhDR+nqO6hIVnhyqbyYGTu54wNMXEBVhe/LwzMBZhmy15ynmPL2A4A/Px3c97A3PMykHy3aDiAZPBmdKobpqjBThWd4W2O6Zlb24CsBZINCY51kRdpt1ND9nfWFvn9pPzv85bLd6j0rYzos+1rnNpuDpO+fp+dwm5jwBz8FwmS5ftYFzlVbwqBINxvu2F/OW+op0AQw7XGwg4nPnpRB/nK8x18hptdX18QP9RX1UL6kazKW8GNacn1EXW52nnfO8eXphANRcMFJAKm8iclXdCt5FmixsXySstqta6f//ETzP7IF4fb/28S+N+gxPy6+K5ONKGqwkYJTHhRhcAoAHHzOwaY//yAfuC8hyvqU8tWuyPdbtQNTzOTcXpSraUUorFqDG+7nn7VFX542yJMi1uqrp6wegWNSRjxxJGI7nNEsht/LIkZjzFNBkqPIcaLHgJPPU5kU5jQOy+Q2u5lEkPOdZ35+5LeUNLuFjBHimb7B2w/b0298lwaZeV/zCaH70Dni2vmA0P2JKHWxR6ufwPifyOsfeFn7bnvbYATwBz+Qn5qNAL+HwEO1PE6KAJ+AJeAKc0ECABgBPwBMDJ2DgwBtM0xuM2S+AJ+AJeAKe0ECABgBPwBMDJ2DgxPRwUFaaXi7gCXgCnoAnNBCgAcCzBXjiudE0PQV4cOiXJjUAeAKe8DoCvI4mByHy6ibUAU/AE/AEPKGBAA0AnoAnBk7AwIG32E1vscl+AzwBT8AT8IQGAjQQD5684duo2Lc9pXd7Nr3A03R+Td4tk8jrL3v0n38/GP/9if71u1hejHyDUvYm+fKLkWPVY5EGjt/Ay/759fM/07c//Zn+/uRzHWy//w39/Sf+bpd+HTDgZf7THlee/FHU79vnV/T65XXil0P3+234UeAptt4Yqfu2Z+/47Ou+7YCnL4R+Rf/6ISY8i3otHF7Yd87MB3+RdlrQ2K53v30pK1fCqQRPUb/P6c6Ps4Xn4K+7NfDM3m/qtV9TJJvb+mGac1Hgaa1gj7ceBjx9wTOn8KzxOsV4GcPp/l9ttkwAnmMP2A53Wed+e5+AZ8fmPP9xKsPd7Pjz8Qb964c9+odx975//CclNH5APx//SgmvNuhchM2Z16flebqhpJODYJH0/Pi6DTr/YZvuG+UOtJD8Af3HkV92Q62DJ39vtldtR1E/6w3arJvyud7z1EN89WXJWlnGC5b5Bcyct3iRsnXbD483znM9BTz/SHd+b2tjAU8Z3nOI/+2Pv6EVpY1cT+17Z7jP+WXTBDKP4jqHhzuGpx3uRZ3rPOzClgzad/Td9+/Ia48no51FPkXZbZ+bETwRtod0LENOh+AiZeDT4SnOGdCyn/sT/fyDmmcGq/O/6AIU4NTyG8PXgKdI53GuaHsVPO11sbWjyE+vd9X5SngKIF7Q+jUlP+e54g30g+F4k7nTCyq9xT4f7D57HS3SQMDJAa5hBs/7z405UQauBaCaHUS+Dijzdz/u0v0flXz5nHVe8wrd/8mRT97W8Y3i+Td0RTmn1Sc/D3havZbcWMqiERaMlIGZC6ji3F/2SuDM7ape/7tt+lkDXZHnP071+UUGkQnjgeV6hmIpnVqm+N/hiQ4zr9UEclb3CnhWtPf+8d7Ui0xV8NS3Ky7sN2CAKt6kPZ25d5JyvbATQ8JzE7iSjWVemadoC5l5rtR2XtUKp7F6jAKsf7Z/56yLrJPjyLuA9nThaKaeZyoAbXqOsun8WPgMMDuAdNFWpjOAZMJUDDALPPm88PjyFXILdI281cFqA3L2vRuewotVyitW57Mw3scWWh2Mwe+Gp3s3zcyzlJ6mOx3n7fY8m4Knwys1PUW5sCNC9nFo/pMDkMLzLIf+VXas/Q7w1AdorcEModrTc+iursC3UYZfnk3Drun82H6VUFTsXZnOANwk8DT7sBQ+G3lr6R1AHgyr4Vnv7fr1r1aXsa3mAp4CnGXIVnqedWG/ojWbXUvnGJ5eYXt4X5bKnLSOgeln5HmyoRiet+jypdkbrWnYNZ2fEAcvxDjCcU08TlCx92iG7fpnkU/F9Vo5Q573VOdaGw7buR7G/Kle/nS6ccOTtxw25jvl4GokbPec85RlWo9Z2G4LvdWw/dfP7XOSMeFZux2zbJ/wUN91CrQR4JktDpkh+sLaHm2urVbPkUrDtnxsGnZN55dBI1tAKXljDJl/P9BCevYKS2GtBb4mTO3wZEhaIGvJj71ea/2cEHR7nlwXEbqXbhiZHUrtY43IAegxp1gFTzG3WdpmmOcyDagyTI10vG0x7yHvDts9V9srNc/w/CP9/Ucj/DYWjFSQZhrKoMsr8zbwikWqhj1Pv9X27IbStbnRCPDMPAQBS+UXRqmAk0XVNOyazi8TfmZHc+7xP5r3J72xDDDaPKEGMPmoknzcKXv8R8BKzjPm6fW0eZ7597JM3/o58huXa0JRq5MjTW6fGng692PnPdmVhSCRn7EHPD96ZAWikY5/tVQ951n/66K8PTaAjhd1sl8YFTD0fVSJoclQ1X69lOdZzImK/FyQtdXLeo7ndz1+ZSSee+3OI0qyf6LBUxaY4rFp2DWdX4o2Q530m4Zqj1p4DhfJzyNzl6GWl+r/vtste4f2VkDPzkaAZ8c8z1QHCuolBzE/XC9X5OU5y9HnV0aJwWKyPvb0OjvcRsAT8Exi3nmygWmB0cwGoflLJGNedGb1SslG/awL4Al4Ap4AHDQQoAHAE/DEwAkYON31lPvpBc6iPwBPwBPwBDyhgQANAJ6AJwZOwMCZhaeDMtPymgFPwBPwBDyhgQANAJ4twBMeQloeAvoD/dGGBgBPwBNeR4DX0cZgRJ7dgjzgCXgCnoAnNBCgAcAT8MTACRg48BK75SW20V+AJ+AJeAKe0ECABuLDc7wVh/mKujbuDL55tvcij/Grtnr6Mlhf+yIdvLQ+aiA6PPnVdOtXb9F8wDMbNPzWmK7sCNhHkaNNgHcbGogLT+F1jmhhaTR38Dx5uI3QKCA0akP0yBMwbUIDEeGpbDcMeAKkACk00HENxIPn0og2r27QkA0GeGLgdHzgNOG5II9ue8CR4LlKKyNls7c5gyfvrYOwvdsDBaBD/5kaiALP4cotfbO3eYPneNuFvm7BaooKnwGaedBAFHiWNn+TG8H1dPfMknDgeWKaAtMUvdNAFHiWYDJnnqfvRlglO2HA9W7AoY/745UDnhF+YQR49mfAAH7oS6mBuPAc/7poc87CdsATA04OOBz7o4W48Ew0DG3v55mZUHiPbvzCqD+DBgBEX7IGAM9Ww3b8th2gAWj6qgHAs1V4YuD0deCgXdA24Al4YkU70ekkADptQAOegCfgCXhCAwEaADwBTwycgIEDrzBtrzBG/wCegCfgCXhCAwEaADwBTwycgIETw7NBGWl7t4An4Al4Ap7QQIAGAE/AEwMnYODAK0zbK4zRP4An4Al4Ap7QQIAGAE/AEwMnYODE8GxQRtreLeAJeAKegCc0EKCBSPDkbTj2KH+b0vj/VLYfbvvFIPAgpAfxjLZefaLdVxe0fk2ewxH66KYG4sFTbv4WQPi2xdUdeB7Ri/2XtJOgDSfpo+VjwHMSeyFtmnAFPDsVtgOeAEmaIJnHfgE824LnZy/p7OAjnR98pLMbX9BgeEQvxp/Pd470Oab1NyIdp83+3tCh5l1+QU/35Xfm8QM9/UwOKFmG7dxH0stV8hx7s4c7Mm9Zvp5f8b2Zlyzf7yg9z4XDC9oVYTyH8u9pWWvzIg2uvaWb+fec5hPdPHyk246vufM+z2frjn6dNb1ZDj6XbQqb1NokHjzNOc+Ewvg2w/adGx/obOcNnR0UQONzL9bHoGFwmqG4AG+Rvrir+3mehzuWazlPE9o8QPj8/ht6sS8hPz6npOX8ztTvhxl48zZMONAYnlvHF7R7/KwQqAClBaBG3svHn/TrlO/5u61jBmmRjwR1YUM/wCM97FSngUjwtHTE0og2EwFo2/A8P5CenGkHhpDruyN6oQAs68iW4HnwsYC5AiMpHvY4M+9Zqb8LxpbrZT7y6AQge5AqUK15PaOt07e0YPlO5Ov4TpaNo9KHFhvCPv72mR08h4u0sHaLLl/yr2xbHds2PEvgyUUrw2IZLhtH0yPl0L90rmy/yT3P6kWoifLL21aul+w/tzdogvERrZ9m4XoR3n+iXQcghefJYbtHHZAGdppWA4BnW3Oe4wEswnYx52kTK8PT5Xk60s8NPDNwlucsTcAWdgI8C1tMCwZcX2/LGcJzmS5fHVnDr9gdNzvPc5E4JPafO5zC8+S51dI0gJzzjO15Viz8yLCd50Dl/5onCXjGHh8ozw7SCPBkSO6R+UD8wtoeba6tJhFizRKe2Sq8ZYHHtpAkFmr0tOzZmnOq4pwCyiyNY4VcLBjFhucF3Tw1AFpaMOIH6ouFHzGA5ao6wvYkxs28QzUCPDNqC1gqK+4mTGfZEW3AMwdW/viRnM+0hemWuU9XeM6wU/O0plMeQ+K0DFJ5nUwvP6t5jf8vPGG9XnLuVmubzE/zDu136sFQ/4WRWODJH0UyQMn5mY8qCWjKPIr0ej7KHKkDsrPUGsp2aaN756PBM2XRtAHPlNuLunVvoKLP0uszwLPlBSOIPj3Ro0/QJ01oAPAEPDF/5jXlAOA0AZw+5QF4Ap6AJ+AJDQRoAPAEPDFwAgZOnzwotCUsqgA8AU/AE/CEBgI0AHgCnhg4AQMH3lqYt9YnuwGegCfgCXhCAwEaADwDjNanuyfaAg8KGgjTAOAJeMLrgAaggQANAJ4BRsOdOuxODbvBbn3SAOAJeMLrgAaggQANAJ4BRuvT3RNtgTcIDYRpID48L23QuvJ2pZWlsIq30+H36PH37+i7J/dwJ8ZNBRqABio1EBWe2Wvp0ngBchV8bz95TQ+upwR11KWqv/Ad9DELDcSD59Ko9ELkWTTYp8zbT97R47sQpI+tkAY6mVcNRILnMl1e26BhR8IAwBNAmFcgoN3+2o8DT57n5C03tPnOdMN3wNNfQBhssNW8aiAiPEe0MlK2GhYgTROgVx6+RtjekShhXgcu2j37m1YceC6NaHO0R6WV9UsbdDmp1XbZIdv04DlW3TFApR5whBbKGogDT5eXmegiEjzPslAweGATaEDXQBx4DrPth0ue59Ko7I0mEC5izlMXCQYN7AENlDUQCZ6L48UiZY7T5Y0CnpUP5kLEZRHDJrDJLDQQD54MxfHcJ89/bqqLRwkAUzU+PE8MRlUP+B96sGkgLjwTg6TNIIMhLxbhF0Z222AQwS7QgNQA4KkBHb9tl8LAEZCABqo1AHhq8Kw2FsQE+0AD0IDUAOAJeGKBChqABgI0AHgGGE3eeXCEFwINzK8GAE/AE14HNAANBGgA8AwwGryN+fU20Pfoe6kBwBPwhNcBDUADARoAPAOMJu88OMILgQbmVwOAJ+AJrwMagAYCNAB4BhgN3sb8ehvoe/S91ADgCXjC64AGoIEADQCeAUaTdx4c4YVAA/OrgQjwzN7lmb1Jid+mpPzxvkaAF2wADUADHdRAJHgq7/GURuL3eQKeGDRSDzhCCx3TQAR42t364cqtJN8iD0/Y3l+wC+wCDegamBE8OZS3eKMdu/NATLqYYA/YY540MBt4ImRHiIYbJTTQcQ3MBJ4csq+vLEM8HRfPPHkZaCu8alMDM4Anh+y36PIldIbZGfgMTUAD3dHADOC5SitXN2gIrwueNzQADXRYA/HhuTRCyN5hwcAz6o5nhL5qt6+iw3NhDSE7RN2uqGFf2DeGBiLDEyF7jE5FGYAHNNC+BiLDs/0GQTSwMTQADcTQAOCJ+UcsWkAD0ECABgDPAKPFuKuhDHhP0EDaGgA8AU94HdAANBCgAcAzwGjwCNL2CNA/6J8YGgA8AU94HdAANBCgAcAzwGgx7mooA94TNJC2BgBPwBNeBzQADQRoAPAMMBo8grQ9AvQP+ieGBgBPwBNeBzQADQRoAPAMMFqMuxrKgPcEDaStAcAT8ITXAQ1AAwEaADwDjAaPIG2PAP2D/omhgXjw5H2LlD3bV5bQweEd/IjWTz/R7ivl7/hZFO9h+Vgpk8s/fUsLMW9Ad0/ou+ff0BWjzNtP3tHju9BUuKZgu0ltFwmeq7QyUnfLxFYck3aUmp4BdvPwURRYquUuHF7QbiRIq+UW/2/Tg+cOSF7/hk4sUC2uBRxgi2Y1EAWe1j3asYNmMPyWjy9o/VqzQvAZWAzPrTvxy83r5vA65ffwPmfYN0YkIPukz0fAc7hIhzsf6fyg+HuxvkiDz17SmXLufP8l7bBAzPMHH+nsxhdlECrpsu+P6IXMb+eonN5DfKWQOQ/b39OyuP4ZbYlzGVy19FN4jMLjzMtSw3YLxO+895tO8E2n2IXhePJw2227Grj2eSCjbfFvHFHgORiW3yA/XBmltYMmw04CUhmwDFYrHI005w4g7tz4QGc7b+js4AM9/SzrYD4nAK3kMYn46zxP/v7mqRraZ3Okhde4R//zz/+j3/5vxd8/n9J/G/Wr8zwFZI050GnO6Ta5R4+/f00PrlcMEg7d69IYbdLLqMgb17lvWnNqm0jwXKTB0og2lQWjzbXVxDrjC3q6/9GAGnuLb+iwVhxH9MICXh6YDMpzrzz8B249PFVwjvO99pZuTuF9cluq4fmMtgxwSjDp1/mmM+whwHhCtyv7ggHrmBOtvM4oC2kTG5tp9k8cePL8prHdsHUedMaiFaBTPEjzcwaDDLJqmC/+r4BnnecqIeN7rIenJZxuG5533rsXsdSyfdOZWgA8ATRTEzP+HAWeVlAmuWCkepo2TzQ7V4ZhtedZTj/dnXR6eLYQtvtC0TedOTC84VkT2pv54jOgHKiBSPC0zW+u0kpyoXu2eCRgt/6G8kUiaVyeF1U808JT7Bo8w+Cth99mHr7huG86M3/fOc+60N7MF58LHcMWk9giCjwHFi/T6o1KSM3yOF44empdKFI907HQGLK8ij7vYft4TrT0/CmH7MZcKEPYJ50pZKy2A26mJmb5OQ48h4vEsEx7wUgKU85pOhaKlEeQCmjKx5CKa7KFouLxp2KOtEgzWcdbflUkHx/K4SQfVcoeJ5KAYljlv0bK08r21h+1R55kmeIoH5Eq8iinLafhdvum02xU8ygSnvMs+kGz2yydkR6XHQ2e6EwIe3oN4BdG09sQOmzKhoBnj++MTYkkqXwc3ie8TkAxtk4BT8ATq63QADQQoAHAM8Bose9wKA9eFTSQngYAT8ATXgc0AA0EaADwDDAavID0vAD0CfoktgYAT8ATXgc0AA0EaADwDDBa7DscyoNXBQ2kpwHAE/CE1wENQAMBGgA8A4wGLyA9LwB9gj6JrQHAE/CE1wENQAMBGgA8A4wW+w6H8uBVQQPpaQDwrITnGt04+JpufF7Xcb7p6vLB94AENNAVDUSEJ28/vJe/WWl9ZTn9UOH6V/Rwv2LDMQle33QyfWePfJM4ood/U/587DNVe/Uyd6v2MKooZ30/q/OXO2veuvvlztdFW6vayf0vbXLwB/plRT26AgbUs/4mFgmevE/7HqnAXFjbo5Wl+grOrhN9vUnfdCm31a9uDKBJ4NNE33GZBTCntPX1r/zrb9wQGaTWtn/+B/pSBaZxXRM2QB5++oxtpzjwtLwMeTBcpstrGzRM9S7Ng6LK25D19k0n03f4uL7vM4XRoNA//wPtljzFbdr16Rebnb3huUY39sse5Pr+V7Ru5Gs798udrzymehq0k1Gn2BCZ1/LiwHNppHmd0tgLa7fS2n5YEaHu8biF7ptOtlk9amHh36RXt027MgQURzlgzfNHjikFJcwde0RcxyyslHm526PWT/5fXC/zkUeZX1Eme4lau1SvTLGvzLvqyPkUXqesM5cly+Vzql3kedu5RRpIePINT7FxqQzHDbFcn23atbVPljNhe6tsge9k/6dzjANPq+e5SMmG7jx4bIPCHAy+6czrtM880OWgL4QhAFTjYYk0rnqKun1FuwcSyos0cEDBd2DWeZ5cny8PvtagzuBVw103iE0gZxAugW1owpNtlsFbS8vhs2kbhtr+V/SlZm/LtQ47AZ6FPn010+d0ceDJIbo251ksHqU478kDXBuIGuwKAfmmqxOQCZgMBj4hsg0k4/oxAP7m1466+snvfeBZXmBzeGcOm8qy+FiGlQRl+WajAdQGTi6Pz2vglH1p3MAAT+9FNbW/5u3/SPBkkWYAlfsYMTST3ASOB47psdgGum8627XmOXOwm5/H6e1emw0kYy/Tpx1mXSo++8CzfNOJBU8J1qOyxynbVBFOa20DPOf1r0sAAAS/SURBVAFPqZmKY0R4yrt8cUxxztPXm/RN53c3Zg+y8DTLnugiCXCWwvgazzNBeIp2KPON+SM++bniZjCZ5zn2LA++dnvcgCegWAFDv7Fa8Gt28HTMg07agEbT+3qTvukm6CgGhQh5Oe9SaOny3roHz4n6y7ba7vAKRUie3yw4DC9uRnmZDo8+W3QqoC2mAEqr7XZb21bbNS92Ag3k9cQ1nYD8bODJ4ByNaCExkdg9neJOI8Xtm06m9ztm8243JEQ12+ieqchPQJYXWdRBr9S1BcDXQcFuFxf4lbpqbdXPm2Wan4UtrFC0AJQ9T17QyiHLZbFtLXPDppdqfpZ1NmFufpbpcOwEEP3GaqbROPAUsCx+XbSZIDjL3oc+iAujGosLDQ6KLKS1eEyiDC5XrkhLaGYD/6HqZeVQVdNm/5fnI11tVM/LMsr5FRAy0sjpBYZaXmcH5Gvtp7dbXbnPwVkqQ7+G2y2nC8T1Wr0s4BzXSV4j2qABV7WP8WiW62ZW2049z0JvOJ+qLeLAswPCYa+pNDAt9fZNl2qHo16AETTQjAYATwsgIa5mxAU7wo591gDgCXj2bi6qzwMWbUvnhgR4Ap6AJzQADQRoAPAMMBru/unc/dEX6ItZaQDwBDzhdUAD0ECABgDPAKPN6k6HcuFlQQPpaADwBDzhdUAD0ECABgDPAKPh7p/O3R99gb6YlQYAT8ATXgc0AA0EaADwDDDarO50KBdeFjSQjgYAT8ATXgc0AA0EaADwDDAa7v7p3P3RF+iLWWmgGXgujWhzVLeZW/lN8rNqdG25d97T7qtPyt8FrV9rQKTXv6GT70/otgHsKw9f08lDj/3hjetq24H08KiggdY0MBU8eRsNsa3G1Q26XLMTpr7ZG4O0DrYNwCpEONfe0s1X72k55Nqaa24/eeeA5D16bIEq4DgjDdT0I/oF/cIamAqeqogqt9S4tEErK8vGHWCVVtZWjXMJdArD8/hZ8/VyeJ3ShvA+E+h7QLN53ffYplHgad/ojb3PhN4mLzxONVQv/r95+EiIauHwIgvlGa5a+vqwnuH43ZN7bnHWwFVCFkdAFhpIQwOAp3lnrPM8+fvTCz205znS07cV24ps04Pn7+jx3apO59C9Lk3V9fgOUIEGYmoA8AyBp2VOdPm4yvtkML6mB9erxJ0BFgtHVTbCdzHhgLKq9QZ4hsDTMicKeFYLDQMR9umbBgDPxOBZHdpjAPZtAKI93dV0FHgObKvtKe7bziD1mfOc2PP0nfOsC+27KzRAAn3XNw3EgedwkcxHmczPyRi2FXguElbbAY9kNG5GW/jsfgqmwjZTwTN/SH6k7snO/9segF+lFSXdeum5zxkPrtKviopHlbbuZHXLH1USvz6SD9I/oy3l10gybWmg1DyKhOc8Z9z/FYOk1JdIGwSbvtlxKnj2zRhttwe/MAIg29YY8o+nMcAzphfh8D7hdcYTPOACWzelAcAzJjxRFsI9aKA3GgA8IebeiLkpjwL5wDv10QDgCXgCntAANBCgAcAzwGg+dyWkgfcCDfRbA4An4AmvAxqABgI0AHgGGA0eRb89CvQv+tdHA4An4AmvAxqABgI0AHgGGM3nroQ08F6ggX5r4P8BgJ4L1n/ZxMYAAAAASUVORK5CYII=;" vertex="1" parent="1">
                    <mxGeometry x="-100" y="125" width="335" height="245" as="geometry"/>
                </mxCell>
                <mxCell id="22" value="VO:AO" style="whiteSpace=wrap;html=1;" vertex="1" parent="1">
                    <mxGeometry x="309" y="290" width="80" height="20" as="geometry"/>
                </mxCell>
            </root>
        </mxGraphModel>
    </diagram>
</mxfile>